<svg id="Layer_1" enable-background="new 0 0 512 512" height="512" viewBox="0 0 512 512" width="512" xmlns="http://www.w3.org/2000/svg"><g><path d="m264.938 44.078c-20.104 0-36.458 16.354-36.458 36.457 0 8.759 3.107 16.805 8.273 23.098-5.313 6.46-8.273 14.569-8.273 23.116 0 20.103 16.355 36.457 36.458 36.457s36.459-16.354 36.459-36.457c0-8.586-2.947-16.68-8.263-23.129 5.161-6.291 8.263-14.332 8.263-23.084 0-20.104-16.355-36.458-36.459-36.458zm0 15c11.833 0 21.459 9.626 21.459 21.457s-9.626 21.457-21.459 21.457c-11.832 0-21.458-9.626-21.458-21.457s9.626-21.457 21.458-21.457zm0 89.128c-11.832 0-21.458-9.626-21.458-21.457 0-5.079 1.777-9.896 4.964-13.718 4.957 2.526 10.56 3.961 16.495 3.961 5.937 0 11.542-1.436 16.501-3.964 3.187 3.815 4.958 8.62 4.958 13.721-.001 11.831-9.627 21.457-21.46 21.457z"/><path d="m230.525 220.379h-46.192c-4.142 0-7.5 3.357-7.5 7.5v235.082c0 4.143 3.358 7.5 7.5 7.5h46.192c4.142 0 7.5-3.357 7.5-7.5v-235.082c0-4.142-3.358-7.5-7.5-7.5zm-7.5 235.082h-31.192v-220.082h31.192z"/><path d="m467.494 303.025v-46.678c0-39.335-32.001-71.336-71.341-71.336-22.937 0-43.366 10.893-56.425 27.765v-167.312c0-24.867-20.231-45.099-45.099-45.099h-249.531c-24.867.001-45.098 20.232-45.098 45.099v421.072c0 24.867 20.231 45.098 45.098 45.098h249.532c6.683 0 13.257-1.503 19.251-4.333 6.577 2.789 13.805 4.333 21.388 4.333h77.328c9.697 0 9.697-15 0-15h-77.328c-22.032 0-39.957-17.925-39.957-39.957v-99.704c0-22.032 17.925-39.957 39.957-39.957h121.774c22.032 0 39.957 17.925 39.957 39.957v99.704c0 22.032-17.925 39.957-39.957 39.957-9.697 0-9.697 15 0 15 30.304 0 54.957-24.653 54.957-54.957v-99.704c0-26.73-19.185-49.051-44.506-53.948zm-392.151 193.609v-395.4c0-9.697-15-9.697-15 0v395.4h-15.245c-16.596 0-30.098-13.502-30.098-30.097v-421.073c0-16.597 13.502-30.099 30.098-30.099h15.245v45.858c0 9.697 15 9.697 15 0v-45.857h58.797v481.269h-58.797zm204.969-139.661v99.704c0 15.655 6.59 29.791 17.13 39.81-.933.087-1.869.147-2.811.147h-145.491v-481.268h145.49c16.597 0 30.099 13.502 30.099 30.099v257.577c-25.278 4.93-44.417 27.233-44.417 53.931zm59.505-54.957v-45.669c0-31.063 25.272-56.336 56.341-56.336 31.063 0 56.336 25.272 56.336 56.336v45.669z"/><path d="m396.155 354.841c-22.727 0-41.217 18.489-41.217 41.216 0 14.944 7.986 28.488 20.723 35.769v25.896c0 4.143 3.357 7.5 7.5 7.5h25.989c4.143 0 7.5-3.357 7.5-7.5v-25.896c12.736-7.28 20.723-20.824 20.723-35.769 0-22.726-18.49-41.216-41.218-41.216zm10.103 65.413c-2.791 1.167-4.607 3.896-4.607 6.92v23.048h-10.989v-23.048c0-3.024-1.816-5.753-4.607-6.92-9.789-4.093-16.115-13.591-16.115-24.197 0-14.455 11.761-26.216 26.217-26.216s26.218 11.761 26.218 26.216c-.002 10.607-6.328 20.105-16.117 24.197z"/></g></svg>