<?xml version="1.0" standalone="no"?>
<!DOCTYPE svg PUBLIC "-//W3C//DTD SVG 20010904//EN"
 "http://www.w3.org/TR/2001/REC-SVG-20010904/DTD/svg10.dtd">
<svg version="1.0" xmlns="http://www.w3.org/2000/svg"
 width="150.000000pt" height="150.000000pt" viewBox="0 0 150.000000 150.000000"
 preserveAspectRatio="xMidYMid meet">

<g transform="translate(0.000000,150.000000) scale(0.100000,-0.100000)"
fill="#000000" stroke="none">
<path d="M510 1314 c-110 -18 -224 -54 -287 -91 -102 -60 -177 -167 -190 -271
l-5 -49 83 -6 c106 -9 213 -9 233 -1 9 3 16 12 16 20 0 25 60 81 109 102 26
12 82 27 122 33 83 13 273 7 359 -12 103 -22 180 -74 180 -121 0 -17 14 -18
176 -18 l176 0 -7 33 c-43 197 -193 319 -465 377 -90 20 -390 22 -500 4z"/>
<path d="M570 902 l0 -78 -41 -39 c-55 -54 -121 -156 -153 -236 -26 -67 -56
-179 -56 -211 0 -17 28 -18 440 -18 l440 0 -6 33 c-26 137 -112 318 -198 414
l-46 51 0 81 0 81 -55 0 -55 0 0 -65 0 -65 -85 0 -85 0 0 65 0 65 -50 0 -50 0
0 -78z m272 -177 c49 -33 78 -96 78 -169 0 -162 -154 -252 -266 -154 -50 44
-67 83 -68 153 0 73 31 137 83 172 48 32 124 32 173 -2z"/>
<path d="M30 815 l0 -45 165 0 165 0 0 45 0 45 -165 0 -165 0 0 -45z"/>
<path d="M1130 815 l0 -45 175 0 175 0 0 45 0 45 -175 0 -175 0 0 -45z"/>
<path d="M320 225 l0 -75 438 2 437 3 3 73 3 72 -441 0 -440 0 0 -75z"/>
</g>
</svg>
